# xmcd
#
# Track frame offsets: 
#        150
#        13675
#        26613
#        38989
#        52105
#        64559
#        76112
#        87302
#        101564
#        113615
#        127054
#        139240
#        152078
#        165260
#        179149
#        191011
#        204364
#        216265
#        228897
#        242542
#        254146
#        265419
#        277379
#        289340
#        301570
#
# Disc length: 4184 seconds
#
# Revision: 1
# Processed by: cddbd v1.5.2PL0 Copyright (c) Steve Scherf et al.
# Submitted via: ExactAudioCopyFreeDBPlugin 1.0
#
DISCID=6c105619
DTITLE=Various Artist - The Atlantic Records Story [Real Gone Music]
DYEAR=2016
DGENRE=Rhythm and Blues
TTITLE0=Ray Charles - The Midnight Hour
TTITLE1=The Clovers - I Played the Fool
TTITLE2=The Diamonds - A Beggar for Your Kisses
TTITLE3=Ruth Brown - (Mama) He Treats Your Daughter Mean
TTITLE4=The Clovers - Yes, It's You
TTITLE5=The Clovers - Crawlin'
TTITLE6=Ruth Brown - Wild Wild Young Men
TTITLE7=The Cardinals - You Are My Only Love
TTITLE8=Ray Charles - Mess Around
TTITLE9=The Clovers - Good Lovin'
TTITLE10=Joe Turner - Honey Hush
TTITLE11=Carmen Taylor - Ding Dong
TTITLE12=The Diamonds - I'll Live Again
TTITLE13=The Diamonds - Two Loves Have I
TTITLE14=Lavern Baker - How Can You Leave a Man Like This
TTITLE15=Clyde McPhatter and The Drifters - Money Honey
TTITLE16=Carmen Taylor - Big Mamou Daddy
TTITLE17=Joe Turner - TV Mama
TTITLE18=Joe Turner - Oke-She-Moke-She-Pop
TTITLE19=The Diamonds - Romance in the Dark
TTITLE20=Clyde McPhatter and The Drifters - Such a Night
TTITLE21=Professor Longhair - Tipitina
TTITLE22=Ray Charles - It Should've Been Me
TTITLE23=The Clovers - Lovey Dovey
TTITLE24=The Cardinals - Please Baby
EXTD=
EXTT0=
EXTT1=
EXTT2=
EXTT3=
EXTT4=
EXTT5=
EXTT6=
EXTT7=
EXTT8=
EXTT9=
EXTT10=
EXTT11=
EXTT12=
EXTT13=
EXTT14=
EXTT15=
EXTT16=
EXTT17=
EXTT18=
EXTT19=
EXTT20=
EXTT21=
EXTT22=
EXTT23=
EXTT24=
PLAYORDER=
